# xmcd
#
# Track frame offsets:
#	187
#	15717
#	28160
#	40782
#	52517
#	68165
#	80760
#	94905
#	108692
#	119695
#	134610
#	144392
#	159505
#	173127
#	184055
#	194140
#	204885
#	216450
#	230180
#
# Disc length: 3217 seconds
#
# Revision: 1
# Processed by: cddbd v1.5PL3 Copyright (c) Steve Scherf et al.
# Submitted via: CDex 1.50Beta5
#
DISCID=1e0c8f13
DTITLE=Alfred Hause - The Best Of Alfred Hause
DYEAR=1900
DGENRE=Electronica/Dance -> General Electronic
TTITLE0=Blauer Himmel
TTITLE1=Ole Guapa
TTITLE2=Tango Of Roses
TTITLE3=Jalousie
TTITLE4=Adios Pampa Mia
TTITLE5=Blue Tango
TTITLE6=Isle Of Capri
TTITLE7=Il Pleut Sur La Route
TTITLE8=I Kiss Your Hand, Madame
TTITLE9=Song Of Pearlfisher
TTITLE10=In Einer Kleinen Konditorei
TTITLE11=Tango Notturno
TTITLE12=Lamento Gitano
TTITLE13=Orchid In The Moonlight
TTITLE14=Caminito
TTITLE15=A Media Luz
TTITLE16=El Choclo
TTITLE17=Quejas De Bandoneon
TTITLE18=La Cumparsita
EXTD=
EXTT0=
EXTT1=
EXTT2=
EXTT3=
EXTT4=
EXTT5=
EXTT6=
EXTT7=
EXTT8=
EXTT9=
EXTT10=
EXTT11=
EXTT12=
EXTT13=
EXTT14=
EXTT15=
EXTT16=
EXTT17=
EXTT18=
PLAYORDER=
